{
  "accessors": [
    {
      "bufferView": 2,
      "componentType": 5126,
      "count": 65532,
      "max": [
        0.35461345314979553,
        0.9486191868782043,
        0.3046083152294159
      ],
      "min": [
        -0.46472299098968506,
        -0.9507991075515747,
        0.018588347360491753
      ],
      "type": "VEC3"
    },
    {
      "bufferView": 2,
      "byteOffset": 786384,
      "componentType": 5126,
      "count": 65532,
      "max": [
        0.9999690055847168,
        0.9998760223388672,
        0.9999690055847168
      ],
      "min": [
        -0.9999690055847168,
        -0.9999690055847168,
        -0.9999690055847168
      ],
      "type": "VEC3"
    },
    {
      "bufferView": 1,
      "componentType": 5126,
      "count": 65532,
      "max": [
        0.9953797459602356,
        0.999973714351654
      ],
      "min": [
        0.00026934841298498213,
        2.6226043701171875e-05
      ],
      "type": "VEC2"
    },
    {
      "bufferView": 0,
      "componentType": 5125,
      "count": 337368,
      "type": "SCALAR"
    },
    {
      "bufferView": 2,
      "byteOffset": 1572768,
      "componentType": 5126,
      "count": 65532,
      "max": [
        0.4125826358795166,
        0.9486191868782043,
        0.262986421585083
      ],
      "min": [
        -0.46472299098968506,
        -0.9506831765174866,
        -0.023845095187425613
      ],
      "type": "VEC3"
    },
    {
      "bufferView": 2,
      "byteOffset": 2359152,
      "componentType": 5126,
      "count": 65532,
      "max": [
        0.9999690055847168,
        0.9999690055847168,
        0.9999690055847168
      ],
      "min": [
        -0.9999690055847168,
        -1.0,
        -0.9999380111694336
      ],
      "type": "VEC3"
    },
    {
      "bufferView": 1,
      "byteOffset": 524256,
      "componentType": 5126,
      "count": 65532,
      "max": [
        0.992219865322113,
        0.999973714351654
      ],
      "min": [
        2.6282863473170437e-05,
        2.6226043701171875e-05
      ],
      "type": "VEC2"
    },
    {
      "bufferView": 0,
      "byteOffset": 1349472,
      "componentType": 5125,
      "count": 323097,
      "type": "SCALAR"
    },
    {
      "bufferView": 2,
      "byteOffset": 3145536,
      "componentType": 5126,
      "count": 65532,
      "max": [
        0.46429115533828735,
        0.8671144843101501,
        0.24455222487449646
      ],
      "min": [
        -0.31713345646858215,
        -0.94558185338974,
        -0.23149071633815765
      ],
      "type": "VEC3"
    },
    {
      "bufferView": 2,
      "byteOffset": 3931920,
      "componentType": 5126,
      "count": 65532,
      "max": [
        0.9999690055847168,
        0.9998451471328735,
        0.9999690055847168
      ],
      "min": [
        -0.9999690055847168,
        -0.9999380111694336,
        -0.9999690055847168
      ],
      "type": "VEC3"
    },
    {
      "bufferView": 1,
      "byteOffset": 1048512,
      "componentType": 5126,
      "count": 65532,
      "max": [
        0.9939213991165161,
        0.999729573726654
      ],
      "min": [
        0.00026934841298498213,
        0.0014913505874574184
      ],
      "type": "VEC2"
    },
    {
      "bufferView": 0,
      "byteOffset": 2641860,
      "componentType": 5125,
      "count": 326700,
      "type": "SCALAR"
    },
    {
      "bufferView": 2,
      "byteOffset": 4718304,
      "componentType": 5126,
      "count": 65532,
      "max": [
        0.4235967993736267,
        0.7065398693084717,
        0.002588852308690548
      ],
      "min": [
        -0.3688419461250305,
        -0.04021916538476944,
        -0.3024449944496155
      ],
      "type": "VEC3"
    },
    {
      "bufferView": 2,
      "byteOffset": 5504688,
      "componentType": 5126,
      "count": 65532,
      "max": [
        0.9998760223388672,
        0.9998760223388672,
        0.9999690055847168
      ],
      "min": [
        -0.9999380111694336,
        -0.9998760223388672,
        -0.9999690055847168
      ],
      "type": "VEC3"
    },
    {
      "bufferView": 1,
      "byteOffset": 1572768,
      "componentType": 5126,
      "count": 65532,
      "max": [
        0.9953797459602356,
        0.999973714351654
      ],
      "min": [
        2.6282863473170437e-05,
        0.0032006625551730394
      ],
      "type": "VEC2"
    },
    {
      "bufferView": 0,
      "byteOffset": 3948660,
      "componentType": 5125,
      "count": 336783,
      "type": "SCALAR"
    },
    {
      "bufferView": 2,
      "byteOffset": 6291072,
      "componentType": 5126,
      "count": 31391,
      "max": [
        0.3701491951942444,
        0.8697810769081116,
        0.17591671645641327
      ],
      "min": [
        -0.2913951277732849,
        -0.9505672454833984,
        -0.09224873036146164
      ],
      "type": "VEC3"
    },
    {
      "bufferView": 2,
      "byteOffset": 6667764,
      "componentType": 5126,
      "count": 31391,
      "max": [
        0.9998760223388672,
        0.9998451471328735,
        0.9999380111694336
      ],
      "min": [
        -1.0,
        -0.9996901154518127,
        -1.0
      ],
      "type": "VEC3"
    },
    {
      "bufferView": 1,
      "byteOffset": 2097024,
      "componentType": 5126,
      "count": 31391,
      "max": [
        0.9953797459602356,
        0.999973714351654
      ],
      "min": [
        2.6282863473170437e-05,
        0.0032006625551730394
      ],
      "type": "VEC2"
    },
    {
      "bufferView": 0,
      "byteOffset": 5295792,
      "componentType": 5125,
      "count": 152877,
      "type": "SCALAR"
    }
  ],
  "asset": {
    "extras": {
      "author": "zgreenwood (https://sketchfab.com/zgreenwood)",
      "license": "CC-BY-4.0 (http://creativecommons.org/licenses/by/4.0/)",
      "source": "https://sketchfab.com/3d-models/louise-francoise-pink-bunny-a8d20aae5be446a68165f883014bf06f",
      "title": "Louise Françoise pink bunny"
    },
    "generator": "Sketchfab-17.15.0",
    "version": "2.0"
  },
  "bufferViews": [
    {
      "buffer": 0,
      "byteLength": 5907300,
      "name": "floatBufferViews",
      "target": 34963
    },
    {
      "buffer": 0,
      "byteLength": 2348152,
      "byteOffset": 5907300,
      "byteStride": 8,
      "name": "floatBufferViews",
      "target": 34962
    },
    {
      "buffer": 0,
      "byteLength": 7044456,
      "byteOffset": 8255452,
      "byteStride": 12,
      "name": "floatBufferViews",
      "target": 34962
    }
  ],
  "buffers": [
    {
      "byteLength": 15299908,
      "uri": "scene.bin"
    }
  ],
  "images": [
    {
      "uri": "textures/material_0_baseColor.png"
    }
  ],
  "materials": [
    {
      "doubleSided": true,
      "name": "material_0",
      "pbrMetallicRoughness": {
        "baseColorTexture": {
          "index": 0
        },
        "metallicFactor": 0.0,
        "roughnessFactor": 0.8
      }
    }
  ],
  "meshes": [
    {
      "name": "Object_0",
      "primitives": [
        {
          "attributes": {
            "NORMAL": 1,
            "POSITION": 0,
            "TEXCOORD_0": 2
          },
          "indices": 3,
          "material": 0,
          "mode": 4
        }
      ]
    },
    {
      "name": "Object_1",
      "primitives": [
        {
          "attributes": {
            "NORMAL": 5,
            "POSITION": 4,
            "TEXCOORD_0": 6
          },
          "indices": 7,
          "material": 0,
          "mode": 4
        }
      ]
    },
    {
      "name": "Object_2",
      "primitives": [
        {
          "attributes": {
            "NORMAL": 9,
            "POSITION": 8,
            "TEXCOORD_0": 10
          },
          "indices": 11,
          "material": 0,
          "mode": 4
        }
      ]
    },
    {
      "name": "Object_3",
      "primitives": [
        {
          "attributes": {
            "NORMAL": 13,
            "POSITION": 12,
            "TEXCOORD_0": 14
          },
          "indices": 15,
          "material": 0,
          "mode": 4
        }
      ]
    },
    {
      "name": "Object_4",
      "primitives": [
        {
          "attributes": {
            "NORMAL": 17,
            "POSITION": 16,
            "TEXCOORD_0": 18
          },
          "indices": 19,
          "material": 0,
          "mode": 4
        }
      ]
    }
  ],
  "nodes": [
    {
      "children": [
        1
      ],
      "matrix": [
        1.0,
        0.0,
        0.0,
        0.0,
        0.0,
        2.220446049250313e-16,
        -1.0,
        0.0,
        0.0,
        1.0,
        2.220446049250313e-16,
        0.0,
        0.0,
        0.0,
        0.0,
        1.0
      ],
      "name": "Sketchfab_model"
    },
    {
      "children": [
        2
      ],
      "name": "root"
    },
    {
      "children": [
        3
      ],
      "matrix": [
        1.0,
        0.0,
        0.0,
        0.0,
        0.0,
        2.220446049250313e-16,
        1.0,
        0.0,
        0.0,
        -1.0,
        2.220446049250313e-16,
        0.0,
        0.0,
        0.0,
        0.0,
        1.0
      ],
      "name": "GLTF_SceneRootNode"
    },
    {
      "children": [
        4
      ],
      "name": "_1"
    },
    {
      "children": [
        5,
        6,
        7,
        8,
        9
      ],
      "name": "mesh_0_0"
    },
    {
      "mesh": 0,
      "name": "Object_5"
    },
    {
      "mesh": 1,
      "name": "Object_6"
    },
    {
      "mesh": 2,
      "name": "Object_7"
    },
    {
      "mesh": 3,
      "name": "Object_8"
    },
    {
      "mesh": 4,
      "name": "Object_9"
    }
  ],
  "samplers": [
    {
      "magFilter": 9729,
      "minFilter": 9987,
      "wrapS": 10497,
      "wrapT": 10497
    }
  ],
  "scene": 0,
  "scenes": [
    {
      "name": "Sketchfab_Scene",
      "nodes": [
        0
      ]
    }
  ],
  "textures": [
    {
      "sampler": 0,
      "source": 0
    }
  ]
}
