{
  "accessors": [
    {
      "bufferView": 2,
      "componentType": 5126,
      "count": 424,
      "max": [
        -0.01823900081217289,
        -4.24268102645874,
        -0.5577700138092041
      ],
      "min": [
        -0.07277899980545044,
        -4.540730953216553,
        -0.6717900037765503
      ],
      "type": "VEC3"
    },
    {
      "bufferView": 2,
      "byteOffset": 5088,
      "componentType": 5126,
      "count": 424,
      "max": [
        0.9988048672676086,
        0.9616715312004089,
        0.9848685264587402
      ],
      "min": [
        -0.9982423782348633,
        -0.9615627527236938,
        -0.9756624102592468
      ],
      "type": "VEC3"
    },
    {
      "bufferView": 3,
      "componentType": 5126,
      "count": 424,
      "max": [
        0.9998099207878113,
        0.9588237404823303,
        0.9568806290626526,
        1.0
      ],
      "min": [
        -0.9999414682388306,
        -0.9835517406463623,
        -0.9631003737449646,
        1.0
      ],
      "type": "VEC4"
    },
    {
      "bufferView": 1,
      "componentType": 5126,
      "count": 424,
      "max": [
        0.583899974822998,
        -0.9172000288963318
      ],
      "min": [
        0.5817000269889832,
        -0.9581999778747559
      ],
      "type": "VEC2"
    },
    {
      "bufferView": 0,
      "componentType": 5125,
      "count": 1824,
      "type": "SCALAR"
    },
    {
      "bufferView": 2,
      "byteOffset": 10176,
      "componentType": 5126,
      "count": 195,
      "max": [
        -4.720620155334473,
        -0.6635199785232544,
        -0.3152399957180023
      ],
      "min": [
        -4.747139930725098,
        -0.7595300078392029,
        -0.35923001170158386
      ],
      "type": "VEC3"
    },
    {
      "bufferView": 2,
      "byteOffset": 12516,
      "componentType": 5126,
      "count": 195,
      "max": [
        0.0,
        0.98848557472229,
        0.997443437576294
      ],
      "min": [
        -0.9975445866584778,
        -0.9985113143920898,
        -0.9999872446060181
      ],
      "type": "VEC3"
    },
    {
      "bufferView": 1,
      "byteOffset": 3392,
      "componentType": 5126,
      "count": 195,
      "max": [
        1.0500999689102173,
        -2.0546998977661133
      ],
      "min": [
        0.093299999833107,
        -2.696500062942505
      ],
      "type": "VEC2"
    },
    {
      "bufferView": 0,
      "byteOffset": 7296,
      "componentType": 5125,
      "count": 1062,
      "type": "SCALAR"
    },
    {
      "bufferView": 2,
      "byteOffset": 14856,
      "componentType": 5126,
      "count": 16483,
      "max": [
        0.2651199996471405,
        -1.95660400390625,
        -0.8068240284919739
      ],
      "min": [
        -0.2651199996471405,
        -3.8535139560699463,
        -1.0946439504623413
      ],
      "type": "VEC3"
    },
    {
      "bufferView": 2,
      "byteOffset": 212652,
      "componentType": 5126,
      "count": 16483,
      "max": [
        1.0,
        1.0,
        1.0
      ],
      "min": [
        -1.0,
        -1.0,
        -1.0
      ],
      "type": "VEC3"
    },
    {
      "bufferView": 3,
      "byteOffset": 6784,
      "componentType": 5126,
      "count": 16483,
      "max": [
        1.0,
        1.0,
        1.0,
        1.0
      ],
      "min": [
        -1.0,
        -1.0,
        -1.0,
        -1.0
      ],
      "type": "VEC4"
    },
    {
      "bufferView": 1,
      "byteOffset": 4952,
      "componentType": 5126,
      "count": 16483,
      "max": [
        0.9990000128746033,
        -0.012000000104308128
      ],
      "min": [
        0.0020000000949949026,
        -0.9983000159263611
      ],
      "type": "VEC2"
    },
    {
      "bufferView": 0,
      "byteOffset": 11544,
      "componentType": 5125,
      "count": 65523,
      "type": "SCALAR"
    },
    {
      "bufferView": 2,
      "byteOffset": 410448,
      "componentType": 5126,
      "count": 3949,
      "max": [
        0.29642000794410706,
        -1.95660400390625,
        -0.8042240142822266
      ],
      "min": [
        -0.29642000794410706,
        -3.5537939071655273,
        -1.0608539581298828
      ],
      "type": "VEC3"
    },
    {
      "bufferView": 2,
      "byteOffset": 457836,
      "componentType": 5126,
      "count": 3949,
      "max": [
        1.0,
        1.0,
        1.0
      ],
      "min": [
        -1.0,
        -1.0,
        -1.0
      ],
      "type": "VEC3"
    },
    {
      "bufferView": 3,
      "byteOffset": 270512,
      "componentType": 5126,
      "count": 3949,
      "max": [
        1.0,
        1.0,
        1.0,
        1.0
      ],
      "min": [
        -1.0,
        -1.0,
        -1.0,
        -1.0
      ],
      "type": "VEC4"
    },
    {
      "bufferView": 1,
      "byteOffset": 136816,
      "componentType": 5126,
      "count": 3949,
      "max": [
        0.9965999722480774,
        -0.06419999897480011
      ],
      "min": [
        0.0020000000949949026,
        -0.9983000159263611
      ],
      "type": "VEC2"
    },
    {
      "bufferView": 0,
      "byteOffset": 273636,
      "componentType": 5125,
      "count": 14751,
      "type": "SCALAR"
    },
    {
      "bufferView": 2,
      "byteOffset": 505224,
      "componentType": 5126,
      "count": 8175,
      "max": [
        1.2092620134353638,
        0.5394449830055237,
        -0.38354501128196716
      ],
      "min": [
        -1.4092919826507568,
        0.25483399629592896,
        -0.7082129716873169
      ],
      "type": "VEC3"
    },
    {
      "bufferView": 2,
      "byteOffset": 603324,
      "componentType": 5126,
      "count": 8175,
      "max": [
        0.9996675848960876,
        1.0,
        0.9999608397483826
      ],
      "min": [
        -0.9996941089630127,
        -0.9999932646751404,
        -0.999884843826294
      ],
      "type": "VEC3"
    },
    {
      "bufferView": 3,
      "byteOffset": 333696,
      "componentType": 5126,
      "count": 8175,
      "max": [
        0.9999992251396179,
        1.0,
        1.0,
        1.0
      ],
      "min": [
        -0.999954104423523,
        -0.9999061226844788,
        -0.9999977350234985,
        -1.0
      ],
      "type": "VEC4"
    },
    {
      "bufferView": 1,
      "byteOffset": 168408,
      "componentType": 5126,
      "count": 8175,
      "max": [
        0.9980000257492065,
        -0.065700002014637
      ],
      "min": [
        0.001500000013038516,
        -0.9987999796867371
      ],
      "type": "VEC2"
    },
    {
      "bufferView": 0,
      "byteOffset": 332640,
      "componentType": 5125,
      "count": 24408,
      "type": "SCALAR"
    },
    {
      "bufferView": 2,
      "byteOffset": 701424,
      "componentType": 5126,
      "count": 8734,
      "max": [
        1.4900259971618652,
        1.1174139976501465,
        -0.474047988653183
      ],
      "min": [
        -0.8742750287055969,
        0.20742599666118622,
        -0.7954139709472656
      ],
      "type": "VEC3"
    },
    {
      "bufferView": 2,
      "byteOffset": 806232,
      "componentType": 5126,
      "count": 8734,
      "max": [
        0.9999954700469971,
        0.9999803304672241,
        0.9999142289161682
      ],
      "min": [
        -0.9999954104423523,
        -0.9999041557312012,
        -0.9999176263809204
      ],
      "type": "VEC3"
    },
    {
      "bufferView": 3,
      "byteOffset": 464496,
      "componentType": 5126,
      "count": 8734,
      "max": [
        0.9993210434913635,
        1.0,
        0.9999353885650635,
        1.0
      ],
      "min": [
        -0.9998931884765625,
        -0.9999679923057556,
        -0.9999920725822449,
        -1.0
      ],
      "type": "VEC4"
    },
    {
      "bufferView": 1,
      "byteOffset": 233808,
      "componentType": 5126,
      "count": 8734,
      "max": [
        0.9984999895095825,
        -0.006099999882280827
      ],
      "min": [
        0.001500000013038516,
        -0.9987999796867371
      ],
      "type": "VEC2"
    },
    {
      "bufferView": 0,
      "byteOffset": 430272,
      "componentType": 5125,
      "count": 25788,
      "type": "SCALAR"
    },
    {
      "bufferView": 2,
      "byteOffset": 911040,
      "componentType": 5126,
      "count": 9916,
      "max": [
        1.4091099500656128,
        4.503931045532227,
        0.9970600008964539
      ],
      "min": [
        -0.1282770037651062,
        -4.437704086303711,
        -0.8522869944572449
      ],
      "type": "VEC3"
    },
    {
      "bufferView": 2,
      "byteOffset": 1030032,
      "componentType": 5126,
      "count": 9916,
      "max": [
        1.0,
        0.9999868273735046,
        0.9999890327453613
      ],
      "min": [
        -1.0,
        -0.9999911189079285,
        -0.9998453259468079
      ],
      "type": "VEC3"
    },
    {
      "bufferView": 3,
      "byteOffset": 604240,
      "componentType": 5126,
      "count": 9916,
      "max": [
        1.0,
        1.0,
        0.9999998211860657,
        1.0
      ],
      "min": [
        -1.0,
        -1.0,
        -0.9999997615814209,
        -1.0
      ],
      "type": "VEC4"
    },
    {
      "bufferView": 1,
      "byteOffset": 303680,
      "componentType": 5126,
      "count": 9916,
      "max": [
        0.9983000159263611,
        -0.065700002014637
      ],
      "min": [
        0.001500000013038516,
        -0.9987999796867371
      ],
      "type": "VEC2"
    },
    {
      "bufferView": 0,
      "byteOffset": 533424,
      "componentType": 5125,
      "count": 30276,
      "type": "SCALAR"
    },
    {
      "bufferView": 2,
      "byteOffset": 1149024,
      "componentType": 5126,
      "count": 9526,
      "max": [
        4.726419925689697,
        2.2609798908233643,
        -0.17812000215053558
      ],
      "min": [
        -4.726419925689697,
        -1.3587700128555298,
        -0.7450299859046936
      ],
      "type": "VEC3"
    },
    {
      "bufferView": 2,
      "byteOffset": 1263336,
      "componentType": 5126,
      "count": 9526,
      "max": [
        1.0,
        0.9994516968727112,
        0.9999982714653015
      ],
      "min": [
        -1.0,
        -1.0,
        -0.9999867677688599
      ],
      "type": "VEC3"
    },
    {
      "bufferView": 3,
      "byteOffset": 762896,
      "componentType": 5126,
      "count": 9526,
      "max": [
        1.0,
        1.0,
        1.0,
        1.0
      ],
      "min": [
        -1.0,
        -1.0,
        -1.0,
        -1.0
      ],
      "type": "VEC4"
    },
    {
      "bufferView": 1,
      "byteOffset": 383008,
      "componentType": 5126,
      "count": 9526,
      "max": [
        1.086899995803833,
        -0.004600000102072954
      ],
      "min": [
        0.001500000013038516,
        -0.992900013923645
      ],
      "type": "VEC2"
    },
    {
      "bufferView": 0,
      "byteOffset": 654528,
      "componentType": 5125,
      "count": 38313,
      "type": "SCALAR"
    },
    {
      "bufferView": 2,
      "byteOffset": 1377648,
      "componentType": 5126,
      "count": 13651,
      "max": [
        0.6916360259056091,
        1.0523120164871216,
        -0.39701101183891296
      ],
      "min": [
        -0.6916360259056091,
        0.44296300411224365,
        -0.6317939758300781
      ],
      "type": "VEC3"
    },
    {
      "bufferView": 2,
      "byteOffset": 1541460,
      "componentType": 5126,
      "count": 13651,
      "max": [
        0.9988489151000977,
        0.9998913407325745,
        0.9999544620513916
      ],
      "min": [
        -0.9988570213317871,
        -0.9998896718025208,
        -0.9999958276748657
      ],
      "type": "VEC3"
    },
    {
      "bufferView": 3,
      "byteOffset": 915312,
      "componentType": 5126,
      "count": 13651,
      "max": [
        0.9997999668121338,
        0.9999277591705322,
        0.9999933838844299,
        1.0
      ],
      "min": [
        -0.9997897148132324,
        -0.9999281764030457,
        -1.0,
        -1.0
      ],
      "type": "VEC4"
    },
    {
      "bufferView": 1,
      "byteOffset": 459216,
      "componentType": 5126,
      "count": 13651,
      "max": [
        0.9089000225067139,
        -0.29820001125335693
      ],
      "min": [
        0.001500000013038516,
        -0.9807000160217285
      ],
      "type": "VEC2"
    },
    {
      "bufferView": 0,
      "byteOffset": 807780,
      "componentType": 5125,
      "count": 46152,
      "type": "SCALAR"
    },
    {
      "bufferView": 2,
      "byteOffset": 1705272,
      "componentType": 5126,
      "count": 10794,
      "max": [
        0.42535001039505005,
        5.35359001159668,
        2.531049966812134
      ],
      "min": [
        -0.5357499718666077,
        -5.195850849151611,
        -0.9965699911117554
      ],
      "type": "VEC3"
    },
    {
      "bufferView": 2,
      "byteOffset": 1834800,
      "componentType": 5126,
      "count": 10794,
      "max": [
        1.0,
        1.0,
        1.0
      ],
      "min": [
        -1.0,
        -1.0,
        -1.0
      ],
      "type": "VEC3"
    },
    {
      "bufferView": 3,
      "byteOffset": 1133728,
      "componentType": 5126,
      "count": 10794,
      "max": [
        1.0,
        1.0,
        1.0,
        1.0
      ],
      "min": [
        -1.0,
        -1.0,
        -1.0,
        -1.0
      ],
      "type": "VEC4"
    },
    {
      "bufferView": 1,
      "byteOffset": 568424,
      "componentType": 5126,
      "count": 10794,
      "max": [
        0.9987999796867371,
        -0.004900000058114529
      ],
      "min": [
        0.001500000013038516,
        -0.9987999796867371
      ],
      "type": "VEC2"
    },
    {
      "bufferView": 0,
      "byteOffset": 992388,
      "componentType": 5125,
      "count": 25575,
      "type": "SCALAR"
    },
    {
      "bufferView": 2,
      "byteOffset": 1964328,
      "componentType": 5126,
      "count": 21177,
      "max": [
        2.249769926071167,
        5.8288397789001465,
        2.888400077819824
      ],
      "min": [
        -2.249769926071167,
        2.0600600242614746,
        -0.7325900197029114
      ],
      "type": "VEC3"
    },
    {
      "bufferView": 2,
      "byteOffset": 2218452,
      "componentType": 5126,
      "count": 21177,
      "max": [
        1.0,
        1.0,
        1.0
      ],
      "min": [
        -1.0,
        -1.0,
        -1.0
      ],
      "type": "VEC3"
    },
    {
      "bufferView": 3,
      "byteOffset": 1306432,
      "componentType": 5126,
      "count": 21177,
      "max": [
        1.0,
        1.0,
        1.0,
        1.0
      ],
      "min": [
        -1.0,
        -1.0,
        -1.0,
        -1.0
      ],
      "type": "VEC4"
    },
    {
      "bufferView": 1,
      "byteOffset": 654776,
      "componentType": 5126,
      "count": 21177,
      "max": [
        0.9984999895095825,
        -0.0071000000461936
      ],
      "min": [
        0.001500000013038516,
        -0.9987999796867371
      ],
      "type": "VEC2"
    },
    {
      "bufferView": 0,
      "byteOffset": 1094688,
      "componentType": 5125,
      "count": 65475,
      "type": "SCALAR"
    },
    {
      "bufferView": 2,
      "byteOffset": 2472576,
      "componentType": 5126,
      "count": 11888,
      "max": [
        2.0755839347839355,
        5.6529388427734375,
        2.4617559909820557
      ],
      "min": [
        -1.4900020360946655,
        -5.131481170654297,
        -0.7954549789428711
      ],
      "type": "VEC3"
    },
    {
      "bufferView": 2,
      "byteOffset": 2615232,
      "componentType": 5126,
      "count": 11888,
      "max": [
        1.0,
        0.9999844431877136,
        0.9999003410339355
      ],
      "min": [
        -1.0,
        -0.9999844431877136,
        -0.9999833703041077
      ],
      "type": "VEC3"
    },
    {
      "bufferView": 3,
      "byteOffset": 1645264,
      "componentType": 5126,
      "count": 11888,
      "max": [
        1.0,
        1.0,
        0.9999959468841553,
        1.0
      ],
      "min": [
        -1.0,
        -1.0,
        -0.9999914169311523,
        -1.0
      ],
      "type": "VEC4"
    },
    {
      "bufferView": 1,
      "byteOffset": 824192,
      "componentType": 5126,
      "count": 11888,
      "max": [
        0.9990000128746033,
        -0.006099999882280827
      ],
      "min": [
        0.001500000013038516,
        -0.9987999796867371
      ],
      "type": "VEC2"
    },
    {
      "bufferView": 0,
      "byteOffset": 1356588,
      "componentType": 5125,
      "count": 34788,
      "type": "SCALAR"
    },
    {
      "bufferView": 2,
      "byteOffset": 2757888,
      "componentType": 5126,
      "count": 11776,
      "max": [
        4.371241092681885,
        5.619869232177734,
        0.786791980266571
      ],
      "min": [
        -4.377931118011475,
        -3.3382270336151123,
        -0.865962028503418
      ],
      "type": "VEC3"
    },
    {
      "bufferView": 2,
      "byteOffset": 2899200,
      "componentType": 5126,
      "count": 11776,
      "max": [
        1.0,
        1.0,
        0.9999905228614807
      ],
      "min": [
        -1.0,
        -1.0,
        -0.9999833703041077
      ],
      "type": "VEC3"
    },
    {
      "bufferView": 3,
      "byteOffset": 1835472,
      "componentType": 5126,
      "count": 11776,
      "max": [
        1.0,
        1.0,
        0.9999999403953552,
        1.0
      ],
      "min": [
        -1.0,
        -1.0,
        -1.0,
        -1.0
      ],
      "type": "VEC4"
    },
    {
      "bufferView": 1,
      "byteOffset": 919296,
      "componentType": 5126,
      "count": 11776,
      "max": [
        0.9968000054359436,
        -0.00419999985024333
      ],
      "min": [
        0.001500000013038516,
        -0.9987999796867371
      ],
      "type": "VEC2"
    },
    {
      "bufferView": 0,
      "byteOffset": 1495740,
      "componentType": 5125,
      "count": 33963,
      "type": "SCALAR"
    },
    {
      "bufferView": 2,
      "byteOffset": 3040512,
      "componentType": 5126,
      "count": 11987,
      "max": [
        2.939378023147583,
        0.9330909848213196,
        -0.02282099984586239
      ],
      "min": [
        -0.16100700199604034,
        -5.264269828796387,
        -0.8604900240898132
      ],
      "type": "VEC3"
    },
    {
      "bufferView": 2,
      "byteOffset": 3184356,
      "componentType": 5126,
      "count": 11987,
      "max": [
        1.0,
        1.0,
        0.9999980926513672
      ],
      "min": [
        -1.0,
        -1.0,
        -1.0
      ],
      "type": "VEC3"
    },
    {
      "bufferView": 3,
      "byteOffset": 2023888,
      "componentType": 5126,
      "count": 11987,
      "max": [
        1.0,
        1.0,
        1.0,
        1.0
      ],
      "min": [
        -1.0,
        -1.0,
        -1.0,
        -1.0
      ],
      "type": "VEC4"
    },
    {
      "bufferView": 1,
      "byteOffset": 1013504,
      "componentType": 5126,
      "count": 11987,
      "max": [
        0.9970999956130981,
        -0.053199999034404755
      ],
      "min": [
        0.001500000013038516,
        -0.9987999796867371
      ],
      "type": "VEC2"
    },
    {
      "bufferView": 0,
      "byteOffset": 1631592,
      "componentType": 5125,
      "count": 33906,
      "type": "SCALAR"
    },
    {
      "bufferView": 2,
      "byteOffset": 3328200,
      "componentType": 5126,
      "count": 12890,
      "max": [
        1.4830900430679321,
        2.6238999366760254,
        0.7544900178909302
      ],
      "min": [
        -1.4830900430679321,
        -5.782959938049316,
        -0.9163600206375122
      ],
      "type": "VEC3"
    },
    {
      "bufferView": 2,
      "byteOffset": 3482880,
      "componentType": 5126,
      "count": 12890,
      "max": [
        1.0,
        1.0,
        1.0
      ],
      "min": [
        -1.0,
        -1.0,
        -1.0
      ],
      "type": "VEC3"
    },
    {
      "bufferView": 3,
      "byteOffset": 2215680,
      "componentType": 5126,
      "count": 12890,
      "max": [
        1.0,
        1.0,
        1.0,
        1.0
      ],
      "min": [
        -1.0,
        -1.0,
        -1.0,
        -1.0
      ],
      "type": "VEC4"
    },
    {
      "bufferView": 1,
      "byteOffset": 1109400,
      "componentType": 5126,
      "count": 12890,
      "max": [
        0.9984999895095825,
        -0.002899999963119626
      ],
      "min": [
        0.003700000001117587,
        -0.9987999796867371
      ],
      "type": "VEC2"
    },
    {
      "bufferView": 0,
      "byteOffset": 1767216,
      "componentType": 5125,
      "count": 36432,
      "type": "SCALAR"
    },
    {
      "bufferView": 2,
      "byteOffset": 3637560,
      "componentType": 5126,
      "count": 23522,
      "max": [
        1.482509970664978,
        2.6238999366760254,
        0.7846699953079224
      ],
      "min": [
        -1.482509970664978,
        -6.293789863586426,
        -0.8816800117492676
      ],
      "type": "VEC3"
    },
    {
      "bufferView": 2,
      "byteOffset": 3919824,
      "componentType": 5126,
      "count": 23522,
      "max": [
        1.0,
        1.0,
        1.0
      ],
      "min": [
        -1.0,
        -1.0,
        -1.0
      ],
      "type": "VEC3"
    },
    {
      "bufferView": 3,
      "byteOffset": 2421920,
      "componentType": 5126,
      "count": 23522,
      "max": [
        1.0,
        1.0,
        1.0,
        1.0
      ],
      "min": [
        -1.0,
        -1.0,
        -1.0,
        -1.0
      ],
      "type": "VEC4"
    },
    {
      "bufferView": 1,
      "byteOffset": 1212520,
      "componentType": 5126,
      "count": 23522,
      "max": [
        0.9984999895095825,
        -0.00419999985024333
      ],
      "min": [
        0.001500000013038516,
        -0.9993000030517578
      ],
      "type": "VEC2"
    },
    {
      "bufferView": 0,
      "byteOffset": 1912944,
      "componentType": 5125,
      "count": 65535,
      "type": "SCALAR"
    },
    {
      "bufferView": 2,
      "byteOffset": 4202088,
      "componentType": 5126,
      "count": 236,
      "max": [
        0.04287999868392944,
        -0.872219979763031,
        0.5493800044059753
      ],
      "min": [
        -0.04287999868392944,
        -2.7876598834991455,
        -0.7069200277328491
      ],
      "type": "VEC3"
    },
    {
      "bufferView": 2,
      "byteOffset": 4204920,
      "componentType": 5126,
      "count": 236,
      "max": [
        1.0,
        0.9406315088272095,
        0.9466683268547058
      ],
      "min": [
        -1.0,
        -0.9406479001045227,
        -0.9575704336166382
      ],
      "type": "VEC3"
    },
    {
      "bufferView": 3,
      "byteOffset": 2798272,
      "componentType": 5126,
      "count": 236,
      "max": [
        0.9905629754066467,
        0.9299005270004272,
        0.9406754970550537,
        1.0
      ],
      "min": [
        -0.9905958771705627,
        -0.9411876797676086,
        -0.3396824896335602,
        1.0
      ],
      "type": "VEC4"
    },
    {
      "bufferView": 1,
      "byteOffset": 1400696,
      "componentType": 5126,
      "count": 236,
      "max": [
        0.9916999936103821,
        -0.03539999946951866
      ],
      "min": [
        0.12800000607967377,
        -0.8849999904632568
      ],
      "type": "VEC2"
    },
    {
      "bufferView": 0,
      "byteOffset": 2175084,
      "componentType": 5125,
      "count": 516,
      "type": "SCALAR"
    },
    {
      "bufferView": 2,
      "byteOffset": 4207752,
      "componentType": 5126,
      "count": 15307,
      "max": [
        0.3100599944591522,
        -2.253948926925659,
        0.5488809943199158
      ],
      "min": [
        -0.31119099259376526,
        -3.4971320629119873,
        -0.6515020132064819
      ],
      "type": "VEC3"
    },
    {
      "bufferView": 2,
      "byteOffset": 4391436,
      "componentType": 5126,
      "count": 15307,
      "max": [
        1.0,
        1.0,
        1.0
      ],
      "min": [
        -1.0,
        -1.0,
        -1.0
      ],
      "type": "VEC3"
    },
    {
      "bufferView": 3,
      "byteOffset": 2802048,
      "componentType": 5126,
      "count": 15307,
      "max": [
        1.0,
        1.0,
        1.0,
        1.0
      ],
      "min": [
        -1.0,
        -1.0,
        -1.0,
        -1.0
      ],
      "type": "VEC4"
    },
    {
      "bufferView": 1,
      "byteOffset": 1402584,
      "componentType": 5126,
      "count": 15307,
      "max": [
        0.9968000054359436,
        -0.0034000000450760126
      ],
      "min": [
        0.0020000000949949026,
        -0.9983000159263611
      ],
      "type": "VEC2"
    },
    {
      "bufferView": 0,
      "byteOffset": 2177148,
      "componentType": 5125,
      "count": 40923,
      "type": "SCALAR"
    },
    {
      "bufferView": 2,
      "byteOffset": 4575120,
      "componentType": 5126,
      "count": 240,
      "max": [
        0.025050999596714973,
        -0.8676580190658569,
        0.5836129784584045
      ],
      "min": [
        -0.02488899976015091,
        -2.752202033996582,
        -0.6356629729270935
      ],
      "type": "VEC3"
    },
    {
      "bufferView": 2,
      "byteOffset": 4578000,
      "componentType": 5126,
      "count": 240,
      "max": [
        0.9910313487052917,
        0.9615273475646973,
        0.9832040071487427
      ],
      "min": [
        -0.9907325506210327,
        -0.9350151419639587,
        -0.9406415820121765
      ],
      "type": "VEC3"
    },
    {
      "bufferView": 3,
      "byteOffset": 3046960,
      "componentType": 5126,
      "count": 240,
      "max": [
        0.9999474287033081,
        0.9239171147346497,
        0.47837114334106445,
        1.0
      ],
      "min": [
        -0.9995250701904297,
        -0.9209271669387817,
        -0.9438033103942871,
        1.0
      ],
      "type": "VEC4"
    },
    {
      "bufferView": 1,
      "byteOffset": 1525040,
      "componentType": 5126,
      "count": 240,
      "max": [
        0.9916999936103821,
        -0.13989999890327454
      ],
      "min": [
        0.1128000020980835,
        -0.9609000086784363
      ],
      "type": "VEC2"
    },
    {
      "bufferView": 0,
      "byteOffset": 2340840,
      "componentType": 5125,
      "count": 756,
      "type": "SCALAR"
    },
    {
      "bufferView": 2,
      "byteOffset": 4580880,
      "componentType": 5126,
      "count": 15305,
      "max": [
        0.3100599944591522,
        -0.7771180272102356,
        0.7384020090103149
      ],
      "min": [
        -0.31119099259376526,
        -2.020301103591919,
        -0.46198099851608276
      ],
      "type": "VEC3"
    },
    {
      "bufferView": 2,
      "byteOffset": 4764540,
      "componentType": 5126,
      "count": 15305,
      "max": [
        1.0,
        1.0,
        1.0
      ],
      "min": [
        -1.0,
        -1.0,
        -1.0
      ],
      "type": "VEC3"
    },
    {
      "bufferView": 3,
      "byteOffset": 3050800,
      "componentType": 5126,
      "count": 15305,
      "max": [
        1.0,
        1.0,
        1.0,
        1.0
      ],
      "min": [
        -1.0,
        -1.0,
        -1.0,
        -1.0
      ],
      "type": "VEC4"
    },
    {
      "bufferView": 1,
      "byteOffset": 1526960,
      "componentType": 5126,
      "count": 15305,
      "max": [
        0.9968000054359436,
        -0.0034000000450760126
      ],
      "min": [
        0.0020000000949949026,
        -0.9983000159263611
      ],
      "type": "VEC2"
    },
    {
      "bufferView": 0,
      "byteOffset": 2343864,
      "componentType": 5125,
      "count": 40923,
      "type": "SCALAR"
    },
    {
      "bufferView": 2,
      "byteOffset": 4948200,
      "componentType": 5126,
      "count": 120,
      "max": [
        0.025050999596714973,
        -0.8676580190658569,
        0.5836129784584045
      ],
      "min": [
        -0.02488899976015091,
        -1.2753709554672241,
        -0.44614100456237793
      ],
      "type": "VEC3"
    },
    {
      "bufferView": 2,
      "byteOffset": 4949640,
      "componentType": 5126,
      "count": 120,
      "max": [
        0.9910313487052917,
        0.9615269899368286,
        0.9832040071487427
      ],
      "min": [
        -0.9907325506210327,
        -0.9350151419639587,
        -0.9406402111053467
      ],
      "type": "VEC3"
    },
    {
      "bufferView": 3,
      "byteOffset": 3295680,
      "componentType": 5126,
      "count": 120,
      "max": [
        0.9999446868896484,
        0.9232125282287598,
        0.47832024097442627,
        1.0
      ],
      "min": [
        -0.9980617165565491,
        -0.9209149479866028,
        -0.9438024759292603,
        1.0
      ],
      "type": "VEC4"
    },
    {
      "bufferView": 1,
      "byteOffset": 1649400,
      "componentType": 5126,
      "count": 120,
      "max": [
        0.8385999798774719,
        -0.36000001430511475
      ],
      "min": [
        0.21050000190734863,
        -0.9746000170707703
      ],
      "type": "VEC2"
    },
    {
      "bufferView": 0,
      "byteOffset": 2507556,
      "componentType": 5125,
      "count": 378,
      "type": "SCALAR"
    },
    {
      "bufferView": 2,
      "byteOffset": 4951080,
      "componentType": 5126,
      "count": 411,
      "max": [
        4.747139930725098,
        0.11274000257253647,
        0.7822999954223633
      ],
      "min": [
        -0.03158000111579895,
        -0.7595300078392029,
        -0.35923001170158386
      ],
      "type": "VEC3"
    },
    {
      "bufferView": 2,
      "byteOffset": 4956012,
      "componentType": 5126,
      "count": 411,
      "max": [
        0.997544527053833,
        0.98848557472229,
        0.9994150996208191
      ],
      "min": [
        -0.8670207262039185,
        -0.9985113143920898,
        -0.9999872446060181
      ],
      "type": "VEC3"
    },
    {
      "bufferView": 1,
      "byteOffset": 1650360,
      "componentType": 5126,
      "count": 411,
      "max": [
        1.2503000497817993,
        -2.048099994659424
      ],
      "min": [
        -0.09910000115633011,
        -2.696500062942505
      ],
      "type": "VEC2"
    },
    {
      "bufferView": 0,
      "byteOffset": 2509068,
      "componentType": 5125,
      "count": 2142,
      "type": "SCALAR"
    },
    {
      "bufferView": 2,
      "byteOffset": 4960944,
      "componentType": 5126,
      "count": 1863,
      "max": [
        4.7423601150512695,
        5.853119850158691,
        2.8867900371551514
      ],
      "min": [
        -4.7423601150512695,
        -5.685090065002441,
        -0.6699349880218506
      ],
      "type": "VEC3"
    },
    {
      "bufferView": 2,
      "byteOffset": 4983300,
      "componentType": 5126,
      "count": 1863,
      "max": [
        1.0,
        1.0,
        0.999990701675415
      ],
      "min": [
        -1.0,
        -0.9998682737350464,
        -1.0
      ],
      "type": "VEC3"
    },
    {
      "bufferView": 1,
      "byteOffset": 1653648,
      "componentType": 5126,
      "count": 1863,
      "max": [
        1.0037000179290771,
        -0.013199999928474426
      ],
      "min": [
        -1.0614999532699585,
        -3.2822999954223633
      ],
      "type": "VEC2"
    },
    {
      "bufferView": 0,
      "byteOffset": 2517636,
      "componentType": 5125,
      "count": 8598,
      "type": "SCALAR"
    },
    {
      "bufferView": 2,
      "byteOffset": 5005656,
      "componentType": 5126,
      "count": 6543,
      "max": [
        0.4186190068721771,
        -0.6948059797286987,
        0.7862610220909119
      ],
      "min": [
        -0.41865599155426025,
        -2.027611017227173,
        0.12390299886465073
      ],
      "type": "VEC3"
    },
    {
      "bufferView": 2,
      "byteOffset": 5084172,
      "componentType": 5126,
      "count": 6543,
      "max": [
        0.9999768137931824,
        0.9999919533729553,
        0.9998781085014343
      ],
      "min": [
        -0.9999773502349854,
        -0.9997871518135071,
        -0.9999903440475464
      ],
      "type": "VEC3"
    },
    {
      "bufferView": 3,
      "byteOffset": 3297600,
      "componentType": 5126,
      "count": 6543,
      "max": [
        0.9999998807907104,
        0.9999932050704956,
        0.9999976754188538,
        1.0
      ],
      "min": [
        -0.9999997615814209,
        -0.9999998807907104,
        -0.9999922513961792,
        -1.0
      ],
      "type": "VEC4"
    },
    {
      "bufferView": 1,
      "byteOffset": 1668552,
      "componentType": 5126,
      "count": 6543,
      "max": [
        0.9977999925613403,
        -0.002400000113993883
      ],
      "min": [
        0.0020000000949949026,
        -0.9983000159263611
      ],
      "type": "VEC2"
    },
    {
      "bufferView": 0,
      "byteOffset": 2552028,
      "componentType": 5125,
      "count": 22008,
      "type": "SCALAR"
    },
    {
      "bufferView": 2,
      "byteOffset": 5162688,
      "componentType": 5126,
      "count": 7822,
      "max": [
        0.42306599020957947,
        -0.8985509872436523,
        0.7633569836616516
      ],
      "min": [
        -0.4230540096759796,
        -3.3382270336151123,
        -0.030153000727295876
      ],
      "type": "VEC3"
    },
    {
      "bufferView": 2,
      "byteOffset": 5256552,
      "componentType": 5126,
      "count": 7822,
      "max": [
        1.0,
        0.9999961853027344,
        0.9999346733093262
      ],
      "min": [
        -0.9999997019767761,
        -0.9999571442604065,
        -0.9996373653411865
      ],
      "type": "VEC3"
    },
    {
      "bufferView": 3,
      "byteOffset": 3402288,
      "componentType": 5126,
      "count": 7822,
      "max": [
        1.0,
        0.999961793422699,
        0.9999952912330627,
        1.0
      ],
      "min": [
        -1.0,
        -0.9999509453773499,
        -0.9998692870140076,
        -1.0
      ],
      "type": "VEC4"
    },
    {
      "bufferView": 1,
      "byteOffset": 1720896,
      "componentType": 5126,
      "count": 7822,
      "max": [
        0.9980000257492065,
        -0.002400000113993883
      ],
      "min": [
        0.0020000000949949026,
        -0.9984999895095825
      ],
      "type": "VEC2"
    },
    {
      "bufferView": 0,
      "byteOffset": 2640060,
      "componentType": 5125,
      "count": 25809,
      "type": "SCALAR"
    },
    {
      "bufferView": 2,
      "byteOffset": 5350416,
      "componentType": 5126,
      "count": 22823,
      "max": [
        0.5312600135803223,
        -0.6950299739837646,
        0.7846699953079224
      ],
      "min": [
        -0.5315499901771545,
        -3.9878199100494385,
        -0.7122499942779541
      ],
      "type": "VEC3"
    },
    {
      "bufferView": 2,
      "byteOffset": 5624292,
      "componentType": 5126,
      "count": 22823,
      "max": [
        1.0,
        1.0,
        1.0
      ],
      "min": [
        -1.0,
        -1.0,
        -1.0
      ],
      "type": "VEC3"
    },
    {
      "bufferView": 3,
      "byteOffset": 3527440,
      "componentType": 5126,
      "count": 22823,
      "max": [
        1.0,
        1.0,
        1.0,
        1.0
      ],
      "min": [
        -1.0,
        -1.0,
        -1.0,
        -1.0
      ],
      "type": "VEC4"
    },
    {
      "bufferView": 1,
      "byteOffset": 1783472,
      "componentType": 5126,
      "count": 22823,
      "max": [
        0.9980000257492065,
        -0.0017000000225380063
      ],
      "min": [
        0.0020000000949949026,
        -0.9983000159263611
      ],
      "type": "VEC2"
    },
    {
      "bufferView": 0,
      "byteOffset": 2743296,
      "componentType": 5125,
      "count": 65535,
      "type": "SCALAR"
    },
    {
      "bufferView": 2,
      "byteOffset": 5898168,
      "componentType": 5126,
      "count": 22130,
      "max": [
        0.5312600135803223,
        -0.6950299739837646,
        0.7846699953079224
      ],
      "min": [
        -0.5315499901771545,
        -3.9805901050567627,
        -0.713379979133606
      ],
      "type": "VEC3"
    },
    {
      "bufferView": 2,
      "byteOffset": 6163728,
      "componentType": 5126,
      "count": 22130,
      "max": [
        1.0,
        1.0,
        1.0
      ],
      "min": [
        -1.0,
        -1.0,
        -1.0
      ],
      "type": "VEC3"
    },
    {
      "bufferView": 3,
      "byteOffset": 3892608,
      "componentType": 5126,
      "count": 22130,
      "max": [
        1.0,
        1.0,
        1.0,
        1.0
      ],
      "min": [
        -1.0,
        -1.0,
        -1.0,
        -1.0
      ],
      "type": "VEC4"
    },
    {
      "bufferView": 1,
      "byteOffset": 1966056,
      "componentType": 5126,
      "count": 22130,
      "max": [
        0.9977999925613403,
        -0.0017000000225380063
      ],
      "min": [
        0.0020000000949949026,
        -0.9983000159263611
      ],
      "type": "VEC2"
    },
    {
      "bufferView": 0,
      "byteOffset": 3005436,
      "componentType": 5125,
      "count": 65532,
      "type": "SCALAR"
    },
    {
      "bufferView": 2,
      "byteOffset": 6429288,
      "componentType": 5126,
      "count": 22267,
      "max": [
        0.5230000019073486,
        -0.7650899887084961,
        0.7242000102996826
      ],
      "min": [
        -0.5212600231170654,
        -3.8795700073242188,
        -0.7153300046920776
      ],
      "type": "VEC3"
    },
    {
      "bufferView": 2,
      "byteOffset": 6696492,
      "componentType": 5126,
      "count": 22267,
      "max": [
        1.0,
        1.0,
        1.0
      ],
      "min": [
        -1.0,
        -1.0,
        -1.0
      ],
      "type": "VEC3"
    },
    {
      "bufferView": 3,
      "byteOffset": 4246688,
      "componentType": 5126,
      "count": 22267,
      "max": [
        1.0,
        1.0,
        1.0,
        1.0
      ],
      "min": [
        -1.0,
        -1.0,
        -1.0,
        -1.0
      ],
      "type": "VEC4"
    },
    {
      "bufferView": 1,
      "byteOffset": 2143096,
      "componentType": 5126,
      "count": 22267,
      "max": [
        0.9980000257492065,
        -0.0017000000225380063
      ],
      "min": [
        0.0010000000474974513,
        -0.9993000030517578
      ],
      "type": "VEC2"
    },
    {
      "bufferView": 0,
      "byteOffset": 3267564,
      "componentType": 5125,
      "count": 65535,
      "type": "SCALAR"
    },
    {
      "bufferView": 2,
      "byteOffset": 6963696,
      "componentType": 5126,
      "count": 4037,
      "max": [
        0.43751999735832214,
        0.1911499947309494,
        0.3546999990940094
      ],
      "min": [
        -0.42882999777793884,
        -3.7179501056671143,
        -0.7481799721717834
      ],
      "type": "VEC3"
    },
    {
      "bufferView": 2,
      "byteOffset": 7012140,
      "componentType": 5126,
      "count": 4037,
      "max": [
        1.0,
        1.0,
        1.0
      ],
      "min": [
        -1.0,
        -1.0,
        -1.0
      ],
      "type": "VEC3"
    },
    {
      "bufferView": 3,
      "byteOffset": 4602960,
      "componentType": 5126,
      "count": 4037,
      "max": [
        1.0,
        1.0,
        1.0,
        1.0
      ],
      "min": [
        -1.0,
        -1.0,
        -1.0,
        -1.0
      ],
      "type": "VEC4"
    },
    {
      "bufferView": 1,
      "byteOffset": 2321232,
      "componentType": 5126,
      "count": 4037,
      "max": [
        0.9973000288009644,
        -0.03319999948143959
      ],
      "min": [
        0.016100000590085983,
        -0.9993000030517578
      ],
      "type": "VEC2"
    },
    {
      "bufferView": 0,
      "byteOffset": 3529704,
      "componentType": 5125,
      "count": 10404,
      "type": "SCALAR"
    }
  ],
  "asset": {
    "extras": {
      "author": "Jeyhun1985 (https://sketchfab.com/Jeyhun1985)",
      "license": "CC-BY-4.0 (http://creativecommons.org/licenses/by/4.0/)",
      "source": "https://sketchfab.com/3d-models/l-39za-art-albatros-4f694d2badee4852b917b25e567857d8",
      "title": "L-39ZA ART Albatros"
    },
    "generator": "Sketchfab-17.15.0",
    "version": "2.0"
  },
  "bufferViews": [
    {
      "buffer": 0,
      "byteLength": 3571320,
      "name": "floatBufferViews",
      "target": 34963
    },
    {
      "buffer": 0,
      "byteLength": 2353528,
      "byteOffset": 3571320,
      "byteStride": 8,
      "name": "floatBufferViews",
      "target": 34962
    },
    {
      "buffer": 0,
      "byteLength": 7060584,
      "byteOffset": 5924848,
      "byteStride": 12,
      "name": "floatBufferViews",
      "target": 34962
    },
    {
      "buffer": 0,
      "byteLength": 4667552,
      "byteOffset": 12985432,
      "byteStride": 16,
      "name": "floatBufferViews",
      "target": 34962
    }
  ],
  "buffers": [
    {
      "byteLength": 17652984,
      "uri": "scene.bin"
    }
  ],
  "images": [
    {
      "uri": "textures/048d9290-510c-4397-b2b7-6f0d3cdcc295_baseColor.jpeg"
    },
    {
      "uri": "textures/048d9290-510c-4397-b2b7-6f0d3cdcc295_metallicRoughness.png"
    },
    {
      "uri": "textures/048d9290-510c-4397-b2b7-6f0d3cdcc295_normal.png"
    },
    {
      "uri": "textures/57adce4b-8e5b-4b7c-b966-ff115511a00a_baseColor.jpeg"
    },
    {
      "uri": "textures/57adce4b-8e5b-4b7c-b966-ff115511a00a_metallicRoughness.png"
    },
    {
      "uri": "textures/57adce4b-8e5b-4b7c-b966-ff115511a00a_normal.png"
    },
    {
      "uri": "textures/84a121b6-ca57-4b3a-9e03-85343a61fe83_baseColor.jpeg"
    },
    {
      "uri": "textures/84a121b6-ca57-4b3a-9e03-85343a61fe83_metallicRoughness.png"
    },
    {
      "uri": "textures/84a121b6-ca57-4b3a-9e03-85343a61fe83_normal.png"
    },
    {
      "uri": "textures/c508ea30-99a5-4cec-9484-143548f2016d_baseColor.jpeg"
    },
    {
      "uri": "textures/c508ea30-99a5-4cec-9484-143548f2016d_metallicRoughness.png"
    },
    {
      "uri": "textures/c508ea30-99a5-4cec-9484-143548f2016d_normal.png"
    }
  ],
  "materials": [
    {
      "doubleSided": true,
      "emissiveFactor": [
        0.3,
        0.3,
        0.3
      ],
      "emissiveTexture": {
        "index": 0
      },
      "name": "048d9290-510c-4397-b2b7-6f0d3cdcc295",
      "normalTexture": {
        "index": 2
      },
      "occlusionTexture": {
        "index": 1
      },
      "pbrMetallicRoughness": {
        "baseColorTexture": {
          "index": 0
        },
        "metallicRoughnessTexture": {
          "index": 1
        },
        "roughnessFactor": 0.5
      }
    },
    {
      "doubleSided": true,
      "emissiveFactor": [
        0.25,
        0.25,
        0.25
      ],
      "emissiveTexture": {
        "index": 3
      },
      "name": "57adce4b-8e5b-4b7c-b966-ff115511a00a",
      "normalTexture": {
        "index": 5
      },
      "occlusionTexture": {
        "index": 4
      },
      "pbrMetallicRoughness": {
        "baseColorTexture": {
          "index": 3
        },
        "metallicRoughnessTexture": {
          "index": 4
        },
        "roughnessFactor": 0.4
      }
    },
    {
      "doubleSided": true,
      "emissiveFactor": [
        0.5,
        0.5,
        0.5
      ],
      "emissiveTexture": {
        "index": 6
      },
      "name": "84a121b6-ca57-4b3a-9e03-85343a61fe83",
      "normalTexture": {
        "index": 8
      },
      "occlusionTexture": {
        "index": 7
      },
      "pbrMetallicRoughness": {
        "baseColorTexture": {
          "index": 6
        },
        "metallicRoughnessTexture": {
          "index": 7
        },
        "roughnessFactor": 0.4
      }
    },
    {
      "alphaMode": "BLEND",
      "doubleSided": true,
      "name": "930855ee-a56d-4bb2-84a4-41058728f40e",
      "pbrMetallicRoughness": {
        "baseColorFactor": [
          0.0,
          0.22699999999999998,
          0.12899999999999998,
          0.6
        ],
        "metallicFactor": 0.0,
        "roughnessFactor": 0.09999999999999998
      }
    },
    {
      "alphaMode": "BLEND",
      "doubleSided": true,
      "name": "a47ae7b2-2c04-429e-902e-c082262cb3d8",
      "pbrMetallicRoughness": {
        "baseColorFactor": [
          0.0,
          0.0,
          0.0,
          0.25
        ],
        "metallicFactor": 0.0,
        "roughnessFactor": 0.09999999999999998
      }
    },
    {
      "doubleSided": true,
      "emissiveFactor": [
        0.5,
        0.5,
        0.5
      ],
      "emissiveTexture": {
        "index": 9
      },
      "name": "c508ea30-99a5-4cec-9484-143548f2016d",
      "normalTexture": {
        "index": 11
      },
      "occlusionTexture": {
        "index": 10
      },
      "pbrMetallicRoughness": {
        "baseColorTexture": {
          "index": 9
        },
        "metallicRoughnessTexture": {
          "index": 10
        },
        "roughnessFactor": 0.4
      }
    },
    {
      "doubleSided": true,
      "name": "dd779868-bad3-4463-8f9b-b682b3c1ea58",
      "normalTexture": {
        "index": 5
      },
      "occlusionTexture": {
        "index": 4
      },
      "pbrMetallicRoughness": {
        "baseColorTexture": {
          "index": 3
        },
        "metallicFactor": 0.0,
        "metallicRoughnessTexture": {
          "index": 4
        },
        "roughnessFactor": 0.3
      }
    },
    {
      "alphaMode": "BLEND",
      "doubleSided": true,
      "name": "f6f281ce-426f-48fb-9c73-d33e69646f88",
      "pbrMetallicRoughness": {
        "baseColorFactor": [
          0.459,
          0.0,
          0.0,
          0.6
        ],
        "metallicFactor": 0.0,
        "roughnessFactor": 0.09999999999999998
      }
    }
  ],
  "meshes": [
    {
      "name": "Object_0",
      "primitives": [
        {
          "attributes": {
            "NORMAL": 1,
            "POSITION": 0,
            "TANGENT": 2,
            "TEXCOORD_0": 3
          },
          "indices": 4,
          "material": 6,
          "mode": 4
        }
      ]
    },
    {
      "name": "Object_1",
      "primitives": [
        {
          "attributes": {
            "NORMAL": 6,
            "POSITION": 5,
            "TEXCOORD_0": 7
          },
          "indices": 8,
          "material": 3,
          "mode": 4
        }
      ]
    },
    {
      "name": "Object_2",
      "primitives": [
        {
          "attributes": {
            "NORMAL": 10,
            "POSITION": 9,
            "TANGENT": 11,
            "TEXCOORD_0": 12
          },
          "indices": 13,
          "material": 0,
          "mode": 4
        }
      ]
    },
    {
      "name": "Object_3",
      "primitives": [
        {
          "attributes": {
            "NORMAL": 15,
            "POSITION": 14,
            "TANGENT": 16,
            "TEXCOORD_0": 17
          },
          "indices": 18,
          "material": 0,
          "mode": 4
        }
      ]
    },
    {
      "name": "Object_4",
      "primitives": [
        {
          "attributes": {
            "NORMAL": 20,
            "POSITION": 19,
            "TANGENT": 21,
            "TEXCOORD_0": 22
          },
          "indices": 23,
          "material": 1,
          "mode": 4
        }
      ]
    },
    {
      "name": "Object_5",
      "primitives": [
        {
          "attributes": {
            "NORMAL": 25,
            "POSITION": 24,
            "TANGENT": 26,
            "TEXCOORD_0": 27
          },
          "indices": 28,
          "material": 1,
          "mode": 4
        }
      ]
    },
    {
      "name": "Object_6",
      "primitives": [
        {
          "attributes": {
            "NORMAL": 30,
            "POSITION": 29,
            "TANGENT": 31,
            "TEXCOORD_0": 32
          },
          "indices": 33,
          "material": 1,
          "mode": 4
        }
      ]
    },
    {
      "name": "Object_7",
      "primitives": [
        {
          "attributes": {
            "NORMAL": 35,
            "POSITION": 34,
            "TANGENT": 36,
            "TEXCOORD_0": 37
          },
          "indices": 38,
          "material": 1,
          "mode": 4
        }
      ]
    },
    {
      "name": "Object_8",
      "primitives": [
        {
          "attributes": {
            "NORMAL": 40,
            "POSITION": 39,
            "TANGENT": 41,
            "TEXCOORD_0": 42
          },
          "indices": 43,
          "material": 1,
          "mode": 4
        }
      ]
    },
    {
      "name": "Object_9",
      "primitives": [
        {
          "attributes": {
            "NORMAL": 45,
            "POSITION": 44,
            "TANGENT": 46,
            "TEXCOORD_0": 47
          },
          "indices": 48,
          "material": 1,
          "mode": 4
        }
      ]
    },
    {
      "name": "Object_10",
      "primitives": [
        {
          "attributes": {
            "NORMAL": 50,
            "POSITION": 49,
            "TANGENT": 51,
            "TEXCOORD_0": 52
          },
          "indices": 53,
          "material": 1,
          "mode": 4
        }
      ]
    },
    {
      "name": "Object_11",
      "primitives": [
        {
          "attributes": {
            "NORMAL": 55,
            "POSITION": 54,
            "TANGENT": 56,
            "TEXCOORD_0": 57
          },
          "indices": 58,
          "material": 1,
          "mode": 4
        }
      ]
    },
    {
      "name": "Object_12",
      "primitives": [
        {
          "attributes": {
            "NORMAL": 60,
            "POSITION": 59,
            "TANGENT": 61,
            "TEXCOORD_0": 62
          },
          "indices": 63,
          "material": 1,
          "mode": 4
        }
      ]
    },
    {
      "name": "Object_13",
      "primitives": [
        {
          "attributes": {
            "NORMAL": 65,
            "POSITION": 64,
            "TANGENT": 66,
            "TEXCOORD_0": 67
          },
          "indices": 68,
          "material": 1,
          "mode": 4
        }
      ]
    },
    {
      "name": "Object_14",
      "primitives": [
        {
          "attributes": {
            "NORMAL": 70,
            "POSITION": 69,
            "TANGENT": 71,
            "TEXCOORD_0": 72
          },
          "indices": 73,
          "material": 1,
          "mode": 4
        }
      ]
    },
    {
      "name": "Object_15",
      "primitives": [
        {
          "attributes": {
            "NORMAL": 75,
            "POSITION": 74,
            "TANGENT": 76,
            "TEXCOORD_0": 77
          },
          "indices": 78,
          "material": 1,
          "mode": 4
        }
      ]
    },
    {
      "name": "Object_16",
      "primitives": [
        {
          "attributes": {
            "NORMAL": 80,
            "POSITION": 79,
            "TANGENT": 81,
            "TEXCOORD_0": 82
          },
          "indices": 83,
          "material": 2,
          "mode": 4
        }
      ]
    },
    {
      "name": "Object_17",
      "primitives": [
        {
          "attributes": {
            "NORMAL": 85,
            "POSITION": 84,
            "TANGENT": 86,
            "TEXCOORD_0": 87
          },
          "indices": 88,
          "material": 2,
          "mode": 4
        }
      ]
    },
    {
      "name": "Object_18",
      "primitives": [
        {
          "attributes": {
            "NORMAL": 90,
            "POSITION": 89,
            "TANGENT": 91,
            "TEXCOORD_0": 92
          },
          "indices": 93,
          "material": 2,
          "mode": 4
        }
      ]
    },
    {
      "name": "Object_19",
      "primitives": [
        {
          "attributes": {
            "NORMAL": 95,
            "POSITION": 94,
            "TANGENT": 96,
            "TEXCOORD_0": 97
          },
          "indices": 98,
          "material": 2,
          "mode": 4
        }
      ]
    },
    {
      "name": "Object_20",
      "primitives": [
        {
          "attributes": {
            "NORMAL": 100,
            "POSITION": 99,
            "TANGENT": 101,
            "TEXCOORD_0": 102
          },
          "indices": 103,
          "material": 2,
          "mode": 4
        }
      ]
    },
    {
      "name": "Object_21",
      "primitives": [
        {
          "attributes": {
            "NORMAL": 105,
            "POSITION": 104,
            "TEXCOORD_0": 106
          },
          "indices": 107,
          "material": 7,
          "mode": 4
        }
      ]
    },
    {
      "name": "Object_22",
      "primitives": [
        {
          "attributes": {
            "NORMAL": 109,
            "POSITION": 108,
            "TEXCOORD_0": 110
          },
          "indices": 111,
          "material": 4,
          "mode": 4
        }
      ]
    },
    {
      "name": "Object_23",
      "primitives": [
        {
          "attributes": {
            "NORMAL": 113,
            "POSITION": 112,
            "TANGENT": 114,
            "TEXCOORD_0": 115
          },
          "indices": 116,
          "material": 5,
          "mode": 4
        }
      ]
    },
    {
      "name": "Object_24",
      "primitives": [
        {
          "attributes": {
            "NORMAL": 118,
            "POSITION": 117,
            "TANGENT": 119,
            "TEXCOORD_0": 120
          },
          "indices": 121,
          "material": 5,
          "mode": 4
        }
      ]
    },
    {
      "name": "Object_25",
      "primitives": [
        {
          "attributes": {
            "NORMAL": 123,
            "POSITION": 122,
            "TANGENT": 124,
            "TEXCOORD_0": 125
          },
          "indices": 126,
          "material": 5,
          "mode": 4
        }
      ]
    },
    {
      "name": "Object_26",
      "primitives": [
        {
          "attributes": {
            "NORMAL": 128,
            "POSITION": 127,
            "TANGENT": 129,
            "TEXCOORD_0": 130
          },
          "indices": 131,
          "material": 5,
          "mode": 4
        }
      ]
    },
    {
      "name": "Object_27",
      "primitives": [
        {
          "attributes": {
            "NORMAL": 133,
            "POSITION": 132,
            "TANGENT": 134,
            "TEXCOORD_0": 135
          },
          "indices": 136,
          "material": 5,
          "mode": 4
        }
      ]
    },
    {
      "name": "Object_28",
      "primitives": [
        {
          "attributes": {
            "NORMAL": 138,
            "POSITION": 137,
            "TANGENT": 139,
            "TEXCOORD_0": 140
          },
          "indices": 141,
          "material": 5,
          "mode": 4
        }
      ]
    }
  ],
  "nodes": [
    {
      "children": [
        1
      ],
      "matrix": [
        1.0,
        0.0,
        0.0,
        0.0,
        0.0,
        2.220446049250313e-16,
        -1.0,
        0.0,
        0.0,
        1.0,
        2.220446049250313e-16,
        0.0,
        0.0,
        0.0,
        0.0,
        1.0
      ],
      "name": "Sketchfab_model"
    },
    {
      "children": [
        2,
        3,
        4,
        5,
        6,
        7,
        8,
        9,
        10,
        11,
        12,
        13,
        14,
        15,
        16,
        17,
        18,
        19,
        20,
        21,
        22,
        23,
        24,
        25,
        26,
        27,
        28,
        29,
        30
      ],
      "name": "L-39ZA ART.obj.cleaner.materialmerger.gles"
    },
    {
      "mesh": 0,
      "name": "Object_2"
    },
    {
      "mesh": 1,
      "name": "Object_3"
    },
    {
      "mesh": 2,
      "name": "Object_4"
    },
    {
      "mesh": 3,
      "name": "Object_5"
    },
    {
      "mesh": 4,
      "name": "Object_6"
    },
    {
      "mesh": 5,
      "name": "Object_7"
    },
    {
      "mesh": 6,
      "name": "Object_8"
    },
    {
      "mesh": 7,
      "name": "Object_9"
    },
    {
      "mesh": 8,
      "name": "Object_10"
    },
    {
      "mesh": 9,
      "name": "Object_11"
    },
    {
      "mesh": 10,
      "name": "Object_12"
    },
    {
      "mesh": 11,
      "name": "Object_13"
    },
    {
      "mesh": 12,
      "name": "Object_14"
    },
    {
      "mesh": 13,
      "name": "Object_15"
    },
    {
      "mesh": 14,
      "name": "Object_16"
    },
    {
      "mesh": 15,
      "name": "Object_17"
    },
    {
      "mesh": 16,
      "name": "Object_18"
    },
    {
      "mesh": 17,
      "name": "Object_19"
    },
    {
      "mesh": 18,
      "name": "Object_20"
    },
    {
      "mesh": 19,
      "name": "Object_21"
    },
    {
      "mesh": 20,
      "name": "Object_22"
    },
    {
      "mesh": 21,
      "name": "Object_23"
    },
    {
      "mesh": 22,
      "name": "Object_24"
    },
    {
      "mesh": 23,
      "name": "Object_25"
    },
    {
      "mesh": 24,
      "name": "Object_26"
    },
    {
      "mesh": 25,
      "name": "Object_27"
    },
    {
      "mesh": 26,
      "name": "Object_28"
    },
    {
      "mesh": 27,
      "name": "Object_29"
    },
    {
      "mesh": 28,
      "name": "Object_30"
    }
  ],
  "samplers": [
    {
      "magFilter": 9729,
      "minFilter": 9987,
      "wrapS": 10497,
      "wrapT": 10497
    }
  ],
  "scene": 0,
  "scenes": [
    {
      "name": "Sketchfab_Scene",
      "nodes": [
        0
      ]
    }
  ],
  "textures": [
    {
      "sampler": 0,
      "source": 0
    },
    {
      "sampler": 0,
      "source": 1
    },
    {
      "sampler": 0,
      "source": 2
    },
    {
      "sampler": 0,
      "source": 3
    },
    {
      "sampler": 0,
      "source": 4
    },
    {
      "sampler": 0,
      "source": 5
    },
    {
      "sampler": 0,
      "source": 6
    },
    {
      "sampler": 0,
      "source": 7
    },
    {
      "sampler": 0,
      "source": 8
    },
    {
      "sampler": 0,
      "source": 9
    },
    {
      "sampler": 0,
      "source": 10
    },
    {
      "sampler": 0,
      "source": 11
    }
  ]
}
