{
  "accessors": [
    {
      "bufferView": 2,
      "componentType": 5126,
      "count": 65532,
      "max": [
        4834.0,
        16379.0,
        3563.0
      ],
      "min": [
        0.0,
        16.0,
        0.0
      ],
      "type": "VEC3"
    },
    {
      "bufferView": 2,
      "byteOffset": 786384,
      "componentType": 5126,
      "count": 65532,
      "max": [
        0.9999688863754272,
        0.9999375939369202,
        1.0
      ],
      "min": [
        -0.9999688863754272,
        -0.9999375939369202,
        -0.9999688863754272
      ],
      "type": "VEC3"
    },
    {
      "bufferView": 3,
      "componentType": 5126,
      "count": 65532,
      "max": [
        0.9999992847442627,
        0.9999884963035583,
        0.9999971389770508,
        1.0
      ],
      "min": [
        -1.0,
        -0.9999991655349731,
        -0.9998767375946045,
        -1.0
      ],
      "type": "VEC4"
    },
    {
      "bufferView": 1,
      "componentType": 5126,
      "count": 65532,
      "max": [
        0.062485694885253906,
        0.062485694885253906
      ],
      "min": [
        0.0,
        0.0001983642578125
      ],
      "type": "VEC2"
    },
    {
      "bufferView": 1,
      "byteOffset": 524256,
      "componentType": 5126,
      "count": 65532,
      "max": [
        0.062485694885253906,
        0.062485694885253906
      ],
      "min": [
        0.0,
        0.0001983642578125
      ],
      "type": "VEC2"
    },
    {
      "bufferView": 1,
      "byteOffset": 1048512,
      "componentType": 5126,
      "count": 65532,
      "max": [
        0.062485694885253906,
        0.062485694885253906
      ],
      "min": [
        0.0,
        0.0001983642578125
      ],
      "type": "VEC2"
    },
    {
      "bufferView": 1,
      "byteOffset": 1572768,
      "componentType": 5126,
      "count": 65532,
      "max": [
        0.062485694885253906,
        0.062485694885253906
      ],
      "min": [
        0.0,
        0.0001983642578125
      ],
      "type": "VEC2"
    },
    {
      "bufferView": 1,
      "byteOffset": 2097024,
      "componentType": 5126,
      "count": 65532,
      "max": [
        0.062485694885253906,
        0.062485694885253906
      ],
      "min": [
        0.0,
        0.0001983642578125
      ],
      "type": "VEC2"
    },
    {
      "bufferView": 0,
      "componentType": 5125,
      "count": 315159,
      "type": "SCALAR"
    },
    {
      "bufferView": 2,
      "byteOffset": 1572768,
      "componentType": 5126,
      "count": 35796,
      "max": [
        4858.0,
        16383.0,
        2983.0
      ],
      "min": [
        56.0,
        0.0,
        655.0
      ],
      "type": "VEC3"
    },
    {
      "bufferView": 2,
      "byteOffset": 2002320,
      "componentType": 5126,
      "count": 35796,
      "max": [
        0.9999375939369202,
        0.999846339225769,
        1.0
      ],
      "min": [
        -0.9999688863754272,
        -0.9999375939369202,
        -0.9999688863754272
      ],
      "type": "VEC3"
    },
    {
      "bufferView": 3,
      "byteOffset": 1048512,
      "componentType": 5126,
      "count": 35796,
      "max": [
        0.9998166561126709,
        0.9999999403953552,
        0.9998486042022705,
        1.0
      ],
      "min": [
        -0.9999667406082153,
        -0.9999679327011108,
        -0.9999991059303284,
        -1.0
      ],
      "type": "VEC4"
    },
    {
      "bufferView": 1,
      "byteOffset": 2621280,
      "componentType": 5126,
      "count": 35796,
      "max": [
        0.062394142150878906,
        0.062485694885253906
      ],
      "min": [
        0.0,
        0.0
      ],
      "type": "VEC2"
    },
    {
      "bufferView": 1,
      "byteOffset": 2907648,
      "componentType": 5126,
      "count": 35796,
      "max": [
        0.062394142150878906,
        0.062485694885253906
      ],
      "min": [
        0.0,
        0.0
      ],
      "type": "VEC2"
    },
    {
      "bufferView": 1,
      "byteOffset": 3194016,
      "componentType": 5126,
      "count": 35796,
      "max": [
        0.062394142150878906,
        0.062485694885253906
      ],
      "min": [
        0.0,
        0.0
      ],
      "type": "VEC2"
    },
    {
      "bufferView": 1,
      "byteOffset": 3480384,
      "componentType": 5126,
      "count": 35796,
      "max": [
        0.062394142150878906,
        0.062485694885253906
      ],
      "min": [
        0.0,
        0.0
      ],
      "type": "VEC2"
    },
    {
      "bufferView": 1,
      "byteOffset": 3766752,
      "componentType": 5126,
      "count": 35796,
      "max": [
        0.062394142150878906,
        0.062485694885253906
      ],
      "min": [
        0.0,
        0.0
      ],
      "type": "VEC2"
    },
    {
      "bufferView": 0,
      "byteOffset": 1260636,
      "componentType": 5125,
      "count": 161328,
      "type": "SCALAR"
    }
  ],
  "asset": {
    "extras": {
      "author": "restore50 (https://sketchfab.com/restore50)",
      "license": "CC-BY-4.0 (http://creativecommons.org/licenses/by/4.0/)",
      "source": "https://sketchfab.com/3d-models/black-bikini-studio-portrait-ee7e5b63754f4792b3dddc91f86244da",
      "title": "Black Bikini Studio Portrait"
    },
    "generator": "Sketchfab-17.15.0",
    "version": "2.0"
  },
  "bufferViews": [
    {
      "buffer": 0,
      "byteLength": 1905948,
      "name": "floatBufferViews",
      "target": 34963
    },
    {
      "buffer": 0,
      "byteLength": 4053120,
      "byteOffset": 1905948,
      "byteStride": 8,
      "name": "floatBufferViews",
      "target": 34962
    },
    {
      "buffer": 0,
      "byteLength": 2431872,
      "byteOffset": 5959068,
      "byteStride": 12,
      "name": "floatBufferViews",
      "target": 34962
    },
    {
      "buffer": 0,
      "byteLength": 1621248,
      "byteOffset": 8390940,
      "byteStride": 16,
      "name": "floatBufferViews",
      "target": 34962
    }
  ],
  "buffers": [
    {
      "byteLength": 10012188,
      "uri": "scene.bin"
    }
  ],
  "extensionsUsed": [
    "KHR_texture_transform"
  ],
  "images": [
    {
      "uri": "textures/Material_0_baseColor.png"
    },
    {
      "uri": "textures/Material_0_metallicRoughness.png"
    },
    {
      "uri": "textures/Material_0_emissive.png"
    },
    {
      "uri": "textures/Material_0_normal.png"
    }
  ],
  "materials": [
    {
      "doubleSided": true,
      "emissiveFactor": [
        1.0,
        1.0,
        1.0
      ],
      "emissiveTexture": {
        "extensions": {
          "KHR_texture_transform": {
            "offset": [
              4.92871e-05,
              2.00272e-05
            ],
            "scale": [
              15.9273,
              16.0027
            ]
          }
        },
        "index": 2,
        "texCoord": 2
      },
      "name": "Material_0",
      "normalTexture": {
        "extensions": {
          "KHR_texture_transform": {
            "offset": [
              4.92871e-05,
              2.00272e-05
            ],
            "scale": [
              15.9273,
              16.0027
            ]
          }
        },
        "index": 3,
        "texCoord": 3
      },
      "pbrMetallicRoughness": {
        "baseColorTexture": {
          "extensions": {
            "KHR_texture_transform": {
              "offset": [
                4.92871e-05,
                2.00272e-05
              ],
              "scale": [
                15.9273,
                16.0027
              ]
            }
          },
          "index": 0
        },
        "metallicRoughnessTexture": {
          "extensions": {
            "KHR_texture_transform": {
              "offset": [
                4.92871e-05,
                2.00272e-05
              ],
              "scale": [
                15.9273,
                16.0027
              ]
            }
          },
          "index": 1,
          "texCoord": 1
        }
      }
    }
  ],
  "meshes": [
    {
      "name": "Object_0",
      "primitives": [
        {
          "attributes": {
            "NORMAL": 1,
            "POSITION": 0,
            "TANGENT": 2,
            "TEXCOORD_0": 3,
            "TEXCOORD_1": 4,
            "TEXCOORD_2": 5,
            "TEXCOORD_3": 6,
            "TEXCOORD_4": 7
          },
          "indices": 8,
          "material": 0,
          "mode": 4
        }
      ]
    },
    {
      "name": "Object_1",
      "primitives": [
        {
          "attributes": {
            "NORMAL": 10,
            "POSITION": 9,
            "TANGENT": 11,
            "TEXCOORD_0": 12,
            "TEXCOORD_1": 13,
            "TEXCOORD_2": 14,
            "TEXCOORD_3": 15,
            "TEXCOORD_4": 16
          },
          "indices": 17,
          "material": 0,
          "mode": 4
        }
      ]
    }
  ],
  "nodes": [
    {
      "children": [
        1
      ],
      "matrix": [
        1.0,
        0.0,
        0.0,
        0.0,
        0.0,
        2.220446049250313e-16,
        -1.0,
        0.0,
        0.0,
        1.0,
        2.220446049250313e-16,
        0.0,
        0.0,
        0.0,
        0.0,
        1.0
      ],
      "name": "Sketchfab_model"
    },
    {
      "children": [
        2
      ],
      "name": "root"
    },
    {
      "children": [
        3
      ],
      "matrix": [
        1.0,
        0.0,
        0.0,
        0.0,
        0.0,
        2.220446049250313e-16,
        1.0,
        0.0,
        0.0,
        -1.0,
        2.220446049250313e-16,
        0.0,
        0.0,
        0.0,
        0.0,
        1.0
      ],
      "name": "GLTF_SceneRootNode"
    },
    {
      "children": [
        4
      ],
      "name": "Node_1_1"
    },
    {
      "children": [
        5,
        6
      ],
      "matrix": [
        0.00011586371692828834,
        0.0,
        0.0,
        0.0,
        0.0,
        0.00011586371692828834,
        0.0,
        0.0,
        0.0,
        0.0,
        0.00011586371692828834,
        0.0,
        -0.28415098786354065,
        -0.9498431086540222,
        -0.20710913836956024,
        1.0
      ],
      "name": "mesh_0_0"
    },
    {
      "mesh": 0,
      "name": "Object_5"
    },
    {
      "mesh": 1,
      "name": "Object_6"
    }
  ],
  "samplers": [
    {
      "magFilter": 9729,
      "minFilter": 9987,
      "wrapS": 10497,
      "wrapT": 10497
    }
  ],
  "scene": 0,
  "scenes": [
    {
      "name": "Sketchfab_Scene",
      "nodes": [
        0
      ]
    }
  ],
  "textures": [
    {
      "sampler": 0,
      "source": 0
    },
    {
      "sampler": 0,
      "source": 1
    },
    {
      "sampler": 0,
      "source": 2
    },
    {
      "sampler": 0,
      "source": 3
    }
  ]
}
